<svg xmlns="http://www.w3.org/2000/svg" width="1200" height="3820" viewBox="0 0 1200 3820" role="img" aria-label="TODO roadmap dashboard"><defs><linearGradient id="bg" x1="0" x2="1" y1="0" y2="1"><stop offset="0%" stop-color="#f8fafc"/><stop offset="100%" stop-color="#e2e8f0"/></linearGradient></defs><rect x="0" y="0" width="1200" height="3820" fill="url(#bg)"/><text x="40" y="64" font-family="Segoe UI, Arial, sans-serif" font-size="44" font-weight="700" fill="#0f172a">Roadmap Dashboard</text><text x="40" y="96" font-family="Segoe UI, Arial, sans-serif" font-size="24" fill="#334155">Источник: docs/TODO.md · Обновлено: 2026-04-06 20:21</text><rect x="40" y="100" width="1120" height="560" rx="20" fill="#ffffff" stroke="#cbd5e1" stroke-width="1"/><circle cx="240" cy="380" r="150" fill="none" stroke="#e2e8f0" stroke-width="18"/><circle cx="240" cy="380" r="150" fill="none" stroke="#0ea5e9" stroke-width="18" stroke-linecap="round" stroke-dasharray="493.16 942.48" transform="rotate(-90 240 380)"/><text x="240" y="378" text-anchor="middle" font-family="Segoe UI, Arial, sans-serif" font-size="58" font-weight="700" fill="#0f172a">52.3%</text><text x="240" y="404" text-anchor="middle" font-family="Segoe UI, Arial, sans-serif" font-size="24" fill="#475569">45/86 задач</text><text x="510" y="230" font-family="Segoe UI, Arial, sans-serif" font-size="34" fill="#334155">Статусы этапов</text><text x="510" y="286" font-family="Segoe UI, Arial, sans-serif" font-size="32" fill="#1f9d55">DONE: 6</text><text x="510" y="338" font-family="Segoe UI, Arial, sans-serif" font-size="32" fill="#d97706">ACTIVE: 2</text><text x="510" y="390" font-family="Segoe UI, Arial, sans-serif" font-size="32" fill="#64748b">PLANNED: 6</text><text x="510" y="470" font-family="Segoe UI, Arial, sans-serif" font-size="32" fill="#334155">Всего: 45/86</text><rect x="40" y="690" width="1120" height="480" rx="20" fill="#ffffff" stroke="#cbd5e1" stroke-width="1"/><text x="80" y="756" font-family="Segoe UI, Arial, sans-serif" font-size="40" font-weight="600" fill="#0f172a">Фокус на спринт</text><text x="80" y="826" font-family="Segoe UI, Arial, sans-serif" font-size="30" fill="#334155">• Закрыть Этап 5: split-альбомы, мягкая дедупликация, fix…</text><text x="80" y="906" font-family="Segoe UI, Arial, sans-serif" font-size="30" fill="#334155">• Закрыть Этап 6: HTTPS/webhook и /status очереди</text><text x="80" y="986" font-family="Segoe UI, Arial, sans-serif" font-size="30" fill="#334155">• Зафиксировать SLA MVP и еженедельный контроль</text><text x="80" y="1066" font-family="Segoe UI, Arial, sans-serif" font-size="30" fill="#334155">• Подготовить Этап 9: MAX + МойСклад + 1С</text><rect x="40" y="1210" width="1120" height="2570" rx="20" fill="#ffffff" stroke="#cbd5e1" stroke-width="1"/><text x="80" y="1276" font-family="Segoe UI, Arial, sans-serif" font-size="40" font-weight="600" fill="#0f172a">Прогресс по этапам</text><text x="80" y="1346" font-family="Segoe UI, Arial, sans-serif" font-size="30" fill="#1e293b">MVP Фокус</text><rect x="440" y="1324" width="400" height="42" rx="21" fill="#e2e8f0"/><rect x="440" y="1324" width="0.0" height="42" rx="21" fill="#64748b"/><text x="870" y="1354" font-family="Segoe UI, Arial, sans-serif" font-size="28" fill="#334155">0/3 · 0.0%</text><text x="80" y="1516" font-family="Segoe UI, Arial, sans-serif" font-size="30" fill="#1e293b">Этап 1 — Стабильность</text><rect x="440" y="1494" width="400" height="42" rx="21" fill="#e2e8f0"/><rect x="440" y="1494" width="400.0" height="42" rx="21" fill="#1f9d55"/><text x="870" y="1524" font-family="Segoe UI, Arial, sans-serif" font-size="28" fill="#334155">6/6 · 100.0%</text><text x="80" y="1686" font-family="Segoe UI, Arial, sans-serif" font-size="30" fill="#1e293b">Этап 2 — Масштабирование</text><rect x="440" y="1664" width="400" height="42" rx="21" fill="#e2e8f0"/><rect x="440" y="1664" width="400.0" height="42" rx="21" fill="#1f9d55"/><text x="870" y="1694" font-family="Segoe UI, Arial, sans-serif" font-size="28" fill="#334155">5/5 · 100.0%</text><text x="80" y="1856" font-family="Segoe UI, Arial, sans-serif" font-size="30" fill="#1e293b">Этап 3 — Качество распознавания</text><rect x="440" y="1834" width="400" height="42" rx="21" fill="#e2e8f0"/><rect x="440" y="1834" width="400.0" height="42" rx="21" fill="#1f9d55"/><text x="870" y="1864" font-family="Segoe UI, Arial, sans-serif" font-size="28" fill="#334155">8/8 · 100.0%</text><text x="80" y="2026" font-family="Segoe UI, Arial, sans-serif" font-size="30" fill="#1e293b">Этап 4 — Надежность</text><rect x="440" y="2004" width="400" height="42" rx="21" fill="#e2e8f0"/><rect x="440" y="2004" width="400.0" height="42" rx="21" fill="#1f9d55"/><text x="870" y="2034" font-family="Segoe UI, Arial, sans-serif" font-size="28" fill="#334155">8/8 · 100.0%</text><text x="80" y="2196" font-family="Segoe UI, Arial, sans-serif" font-size="30" fill="#1e293b">Этап 5 — UX бота</text><rect x="440" y="2174" width="400" height="42" rx="21" fill="#e2e8f0"/><rect x="440" y="2174" width="200.0" height="42" rx="21" fill="#d97706"/><text x="870" y="2204" font-family="Segoe UI, Arial, sans-serif" font-size="28" fill="#334155">3/6 · 50.0%</text><text x="80" y="2366" font-family="Segoe UI, Arial, sans-serif" font-size="30" fill="#1e293b">Этап 6 — Хвосты MVP</text><rect x="440" y="2344" width="400" height="42" rx="21" fill="#e2e8f0"/><rect x="440" y="2344" width="218.2" height="42" rx="21" fill="#d97706"/><text x="870" y="2374" font-family="Segoe UI, Arial, sans-serif" font-size="28" fill="#334155">6/11 · 54.5%</text><text x="80" y="2536" font-family="Segoe UI, Arial, sans-serif" font-size="30" fill="#1e293b">Этап 7 — Альтернативный LLM</text><rect x="440" y="2514" width="400" height="42" rx="21" fill="#e2e8f0"/><rect x="440" y="2514" width="0.0" height="42" rx="21" fill="#64748b"/><text x="870" y="2544" font-family="Segoe UI, Arial, sans-serif" font-size="28" fill="#334155">0/5 · 0.0%</text><text x="80" y="2706" font-family="Segoe UI, Arial, sans-serif" font-size="30" fill="#1e293b">Этап 8 — Каналы продаж</text><rect x="440" y="2684" width="400" height="42" rx="21" fill="#e2e8f0"/><rect x="440" y="2684" width="0.0" height="42" rx="21" fill="#64748b"/><text x="870" y="2714" font-family="Segoe UI, Arial, sans-serif" font-size="28" fill="#334155">0/5 · 0.0%</text><text x="80" y="2876" font-family="Segoe UI, Arial, sans-serif" font-size="30" fill="#1e293b">Этап 9 — Интеграции</text><rect x="440" y="2854" width="400" height="42" rx="21" fill="#e2e8f0"/><rect x="440" y="2854" width="0.0" height="42" rx="21" fill="#64748b"/><text x="870" y="2884" font-family="Segoe UI, Arial, sans-serif" font-size="28" fill="#334155">0/8 · 0.0%</text><text x="80" y="3046" font-family="Segoe UI, Arial, sans-serif" font-size="30" fill="#1e293b">Этап 10 — Коммерциализация</text><rect x="440" y="3024" width="400" height="42" rx="21" fill="#e2e8f0"/><rect x="440" y="3024" width="0.0" height="42" rx="21" fill="#64748b"/><text x="870" y="3054" font-family="Segoe UI, Arial, sans-serif" font-size="28" fill="#334155">0/5 · 0.0%</text><text x="80" y="3216" font-family="Segoe UI, Arial, sans-serif" font-size="30" fill="#1e293b">Этап 11 — Процессное масштабирование</text><rect x="440" y="3194" width="400" height="42" rx="21" fill="#e2e8f0"/><rect x="440" y="3194" width="0.0" height="42" rx="21" fill="#64748b"/><text x="870" y="3224" font-family="Segoe UI, Arial, sans-serif" font-size="28" fill="#334155">0/7 · 0.0%</text><text x="80" y="3386" font-family="Segoe UI, Arial, sans-serif" font-size="30" fill="#1e293b">Этап 12 — Post-stage3 backlog</text><rect x="440" y="3364" width="400" height="42" rx="21" fill="#e2e8f0"/><rect x="440" y="3364" width="400.0" height="42" rx="21" fill="#1f9d55"/><text x="870" y="3394" font-family="Segoe UI, Arial, sans-serif" font-size="28" fill="#334155">2/2 · 100.0%</text><text x="80" y="3556" font-family="Segoe UI, Arial, sans-serif" font-size="30" fill="#1e293b">Аудит веток</text><rect x="440" y="3534" width="400" height="42" rx="21" fill="#e2e8f0"/><rect x="440" y="3534" width="400.0" height="42" rx="21" fill="#1f9d55"/><text x="870" y="3564" font-family="Segoe UI, Arial, sans-serif" font-size="28" fill="#334155">7/7 · 100.0%</text></svg>