<svg xmlns="http://www.w3.org/2000/svg" width="720" height="2280" viewBox="0 0 720 2280" role="img" aria-label="TODO roadmap dashboard"><defs><linearGradient id="bg" x1="0" x2="1" y1="0" y2="1"><stop offset="0%" stop-color="#f8fafc"/><stop offset="100%" stop-color="#e2e8f0"/></linearGradient></defs><rect x="0" y="0" width="720" height="2280" fill="url(#bg)"/><text x="40" y="48" font-family="Segoe UI, Arial, sans-serif" font-size="28" font-weight="700" fill="#0f172a">Roadmap Dashboard</text><text x="40" y="72" font-family="Segoe UI, Arial, sans-serif" font-size="14" fill="#334155">Источник: docs/TODO.md · Обновлено: 2026-04-06 20:06</text><rect x="40" y="90" width="640" height="250" rx="16" fill="#ffffff" stroke="#cbd5e1" stroke-width="1"/><circle cx="155" cy="220" r="76" fill="none" stroke="#e2e8f0" stroke-width="18"/><circle cx="155" cy="220" r="76" fill="none" stroke="#0ea5e9" stroke-width="18" stroke-linecap="round" stroke-dasharray="249.87 477.52" transform="rotate(-90 155 220)"/><text x="155" y="218" text-anchor="middle" font-family="Segoe UI, Arial, sans-serif" font-size="30" font-weight="700" fill="#0f172a">52.3%</text><text x="155" y="244" text-anchor="middle" font-family="Segoe UI, Arial, sans-serif" font-size="13" fill="#475569">45/86 задач</text><text x="300" y="150" font-family="Segoe UI, Arial, sans-serif" font-size="14" fill="#334155">Статусы этапов</text><text x="300" y="178" font-family="Segoe UI, Arial, sans-serif" font-size="14" fill="#1f9d55">DONE: 6</text><text x="300" y="206" font-family="Segoe UI, Arial, sans-serif" font-size="14" fill="#d97706">ACTIVE: 2</text><text x="300" y="234" font-family="Segoe UI, Arial, sans-serif" font-size="14" fill="#64748b">PLANNED: 6</text><text x="300" y="272" font-family="Segoe UI, Arial, sans-serif" font-size="14" fill="#334155">Всего: 45/86</text><rect x="40" y="360" width="640" height="220" rx="16" fill="#ffffff" stroke="#cbd5e1" stroke-width="1"/><text x="70" y="392" font-family="Segoe UI, Arial, sans-serif" font-size="20" font-weight="600" fill="#0f172a">Фокус на спринт</text><text x="70" y="424" font-family="Segoe UI, Arial, sans-serif" font-size="14" fill="#334155">• Закрыть Этап 5: split-альбомы, мягкая дедупликация, fixtures</text><text x="70" y="458" font-family="Segoe UI, Arial, sans-serif" font-size="14" fill="#334155">• Закрыть Этап 6: HTTPS/webhook и /status очереди</text><text x="70" y="492" font-family="Segoe UI, Arial, sans-serif" font-size="14" fill="#334155">• Зафиксировать SLA MVP и еженедельный контроль</text><text x="70" y="526" font-family="Segoe UI, Arial, sans-serif" font-size="14" fill="#334155">• Подготовить Этап 9: MAX + МойСклад + 1С</text><rect x="40" y="600" width="640" height="856" rx="16" fill="#ffffff" stroke="#cbd5e1" stroke-width="1"/><text x="70" y="634" font-family="Segoe UI, Arial, sans-serif" font-size="20" font-weight="600" fill="#0f172a">Прогресс по этапам</text><text x="70" y="670" font-family="Segoe UI, Arial, sans-serif" font-size="13" fill="#1e293b">Текущий фокус MVP (апрель 2026)</text><rect x="70" y="678" width="380" height="12" rx="6" fill="#e2e8f0"/><rect x="70" y="678" width="0.0" height="12" rx="6" fill="#64748b"/><text x="470" y="689" font-family="Segoe UI, Arial, sans-serif" font-size="12" fill="#334155">0/3 · 0.0%</text><text x="70" y="724" font-family="Segoe UI, Arial, sans-serif" font-size="13" fill="#1e293b">Этап 1 — Минимальные изменения, высокая стабильность</text><rect x="70" y="732" width="380" height="12" rx="6" fill="#e2e8f0"/><rect x="70" y="732" width="380.0" height="12" rx="6" fill="#1f9d55"/><text x="470" y="743" font-family="Segoe UI, Arial, sans-serif" font-size="12" fill="#334155">6/6 · 100.0%</text><text x="70" y="778" font-family="Segoe UI, Arial, sans-serif" font-size="13" fill="#1e293b">Этап 2 — Масштабируемость 1000+</text><rect x="70" y="786" width="380" height="12" rx="6" fill="#e2e8f0"/><rect x="70" y="786" width="380.0" height="12" rx="6" fill="#1f9d55"/><text x="470" y="797" font-family="Segoe UI, Arial, sans-serif" font-size="12" fill="#334155">5/5 · 100.0%</text><text x="70" y="832" font-family="Segoe UI, Arial, sans-serif" font-size="13" fill="#1e293b">Этап 3 — Оптимизация затрат и качество распознавания</text><rect x="70" y="840" width="380" height="12" rx="6" fill="#e2e8f0"/><rect x="70" y="840" width="380.0" height="12" rx="6" fill="#1f9d55"/><text x="470" y="851" font-family="Segoe UI, Arial, sans-serif" font-size="12" fill="#334155">8/8 · 100.0%</text><text x="70" y="886" font-family="Segoe UI, Arial, sans-serif" font-size="13" fill="#1e293b">Этап 4 — Надежность и наблюдаемость</text><rect x="70" y="894" width="380" height="12" rx="6" fill="#e2e8f0"/><rect x="70" y="894" width="380.0" height="12" rx="6" fill="#1f9d55"/><text x="470" y="905" font-family="Segoe UI, Arial, sans-serif" font-size="12" fill="#334155">8/8 · 100.0%</text><text x="70" y="940" font-family="Segoe UI, Arial, sans-serif" font-size="13" fill="#1e293b">Этап 5 — UX бота (незавершённые пункты из feature/ui-me…</text><rect x="70" y="948" width="380" height="12" rx="6" fill="#e2e8f0"/><rect x="70" y="948" width="190.0" height="12" rx="6" fill="#d97706"/><text x="470" y="959" font-family="Segoe UI, Arial, sans-serif" font-size="12" fill="#334155">3/6 · 50.0%</text><text x="70" y="994" font-family="Segoe UI, Arial, sans-serif" font-size="13" fill="#1e293b">Этап 6 — Выявлено из dialogue_dump (Copilot-сессия)</text><rect x="70" y="1002" width="380" height="12" rx="6" fill="#e2e8f0"/><rect x="70" y="1002" width="207.3" height="12" rx="6" fill="#d97706"/><text x="470" y="1013" font-family="Segoe UI, Arial, sans-serif" font-size="12" fill="#334155">6/11 · 54.5%</text><text x="70" y="1048" font-family="Segoe UI, Arial, sans-serif" font-size="13" fill="#1e293b">Этап 7 — Альтернативный LLM-провайдер (Cloudflare + Gem…</text><rect x="70" y="1056" width="380" height="12" rx="6" fill="#e2e8f0"/><rect x="70" y="1056" width="0.0" height="12" rx="6" fill="#64748b"/><text x="470" y="1067" font-family="Segoe UI, Arial, sans-serif" font-size="12" fill="#334155">0/5 · 0.0%</text><text x="70" y="1102" font-family="Segoe UI, Arial, sans-serif" font-size="13" fill="#1e293b">Этап 8 — Каналы продаж и омниканальный intake (B2B)</text><rect x="70" y="1110" width="380" height="12" rx="6" fill="#e2e8f0"/><rect x="70" y="1110" width="0.0" height="12" rx="6" fill="#64748b"/><text x="470" y="1121" font-family="Segoe UI, Arial, sans-serif" font-size="12" fill="#334155">0/5 · 0.0%</text><text x="70" y="1156" font-family="Segoe UI, Arial, sans-serif" font-size="13" fill="#1e293b">Этап 9 — Интеграции учета и операционных систем как cor…</text><rect x="70" y="1164" width="380" height="12" rx="6" fill="#e2e8f0"/><rect x="70" y="1164" width="0.0" height="12" rx="6" fill="#64748b"/><text x="470" y="1175" font-family="Segoe UI, Arial, sans-serif" font-size="12" fill="#334155">0/8 · 0.0%</text><text x="70" y="1210" font-family="Segoe UI, Arial, sans-serif" font-size="13" fill="#1e293b">Этап 10 — Коммерциализация и удержание</text><rect x="70" y="1218" width="380" height="12" rx="6" fill="#e2e8f0"/><rect x="70" y="1218" width="0.0" height="12" rx="6" fill="#64748b"/><text x="470" y="1229" font-family="Segoe UI, Arial, sans-serif" font-size="12" fill="#334155">0/5 · 0.0%</text><text x="70" y="1264" font-family="Segoe UI, Arial, sans-serif" font-size="13" fill="#1e293b">Этап 11 — Процессное масштабирование (cross-vertical mo…</text><rect x="70" y="1272" width="380" height="12" rx="6" fill="#e2e8f0"/><rect x="70" y="1272" width="0.0" height="12" rx="6" fill="#64748b"/><text x="470" y="1283" font-family="Segoe UI, Arial, sans-serif" font-size="12" fill="#334155">0/7 · 0.0%</text><text x="70" y="1318" font-family="Segoe UI, Arial, sans-serif" font-size="13" fill="#1e293b">Этап 12 — Post-stage3 optimization backlog</text><rect x="70" y="1326" width="380" height="12" rx="6" fill="#e2e8f0"/><rect x="70" y="1326" width="380.0" height="12" rx="6" fill="#1f9d55"/><text x="470" y="1337" font-family="Segoe UI, Arial, sans-serif" font-size="12" fill="#334155">2/2 · 100.0%</text><text x="70" y="1372" font-family="Segoe UI, Arial, sans-serif" font-size="13" fill="#1e293b">Аудит веток и экспериментов (2026-04-05)</text><rect x="70" y="1380" width="380" height="12" rx="6" fill="#e2e8f0"/><rect x="70" y="1380" width="380.0" height="12" rx="6" fill="#1f9d55"/><text x="470" y="1391" font-family="Segoe UI, Arial, sans-serif" font-size="12" fill="#334155">7/7 · 100.0%</text></svg>