<svg xmlns="http://www.w3.org/2000/svg" width="1400" height="984" viewBox="0 0 1400 984" role="img" aria-label="TODO roadmap dashboard"><defs><linearGradient id="bg" x1="0" x2="1" y1="0" y2="1"><stop offset="0%" stop-color="#f8fafc"/><stop offset="100%" stop-color="#e2e8f0"/></linearGradient></defs><rect x="0" y="0" width="1400" height="984" fill="url(#bg)"/><text x="40" y="48" font-family="Segoe UI, Arial, sans-serif" font-size="30" font-weight="700" fill="#0f172a">Roadmap Dashboard</text><text x="40" y="72" font-family="Segoe UI, Arial, sans-serif" font-size="14" fill="#334155">Источник: docs/TODO.md · Обновлено: 2026-04-06 19:54</text><rect x="40" y="80" width="360" height="230" rx="16" fill="#ffffff" stroke="#cbd5e1" stroke-width="1"/><circle cx="175" cy="200" r="88" fill="none" stroke="#e2e8f0" stroke-width="18"/><circle cx="175" cy="200" r="88" fill="none" stroke="#0ea5e9" stroke-width="18" stroke-linecap="round" stroke-dasharray="289.32 552.92" transform="rotate(-90 175 200)"/><text x="175" y="198" text-anchor="middle" font-family="Segoe UI, Arial, sans-serif" font-size="34" font-weight="700" fill="#0f172a">52.3%</text><text x="175" y="224" text-anchor="middle" font-family="Segoe UI, Arial, sans-serif" font-size="13" fill="#475569">45/86 задач</text><text x="250" y="130" font-family="Segoe UI, Arial, sans-serif" font-size="13" fill="#334155">Статусы этапов</text><text x="250" y="155" font-family="Segoe UI, Arial, sans-serif" font-size="13" fill="#1f9d55">DONE: 6</text><text x="250" y="178" font-family="Segoe UI, Arial, sans-serif" font-size="13" fill="#d97706">ACTIVE: 2</text><text x="250" y="201" font-family="Segoe UI, Arial, sans-serif" font-size="13" fill="#64748b">PLANNED: 6</text><rect x="420" y="80" width="940" height="230" rx="16" fill="#ffffff" stroke="#cbd5e1" stroke-width="1"/><text x="450" y="122" font-family="Segoe UI, Arial, sans-serif" font-size="20" font-weight="600" fill="#0f172a">Фокус на спринт</text><text x="450" y="152" font-family="Segoe UI, Arial, sans-serif" font-size="14" fill="#334155">• Закрыть Этап 5: split-альбомы, мягкая дедупликация, fixtures</text><text x="450" y="180" font-family="Segoe UI, Arial, sans-serif" font-size="14" fill="#334155">• Закрыть Этап 6: HTTPS/webhook и /status очереди</text><text x="450" y="208" font-family="Segoe UI, Arial, sans-serif" font-size="14" fill="#334155">• Зафиксировать SLA MVP и еженедельный контроль</text><text x="450" y="236" font-family="Segoe UI, Arial, sans-serif" font-size="14" fill="#334155">• Подготовить Этап 9: MAX + МойСклад + 1С</text><rect x="40" y="330" width="1320" height="594" rx="16" fill="#ffffff" stroke="#cbd5e1" stroke-width="1"/><text x="70" y="364" font-family="Segoe UI, Arial, sans-serif" font-size="20" font-weight="600" fill="#0f172a">Прогресс по этапам</text><text x="70" y="402" font-family="Segoe UI, Arial, sans-serif" font-size="13" fill="#1e293b">Текущий фокус MVP (апрель 2026)</text><rect x="760" y="388" width="430" height="14" rx="7" fill="#e2e8f0"/><rect x="760" y="388" width="0.0" height="14" rx="7" fill="#64748b"/><text x="1204" y="400" font-family="Segoe UI, Arial, sans-serif" font-size="12" fill="#334155">0/3 · 0.0%</text><text x="70" y="438" font-family="Segoe UI, Arial, sans-serif" font-size="13" fill="#1e293b">Этап 1 — Минимальные изменения, высокая стабильность</text><rect x="760" y="424" width="430" height="14" rx="7" fill="#e2e8f0"/><rect x="760" y="424" width="430.0" height="14" rx="7" fill="#1f9d55"/><text x="1204" y="436" font-family="Segoe UI, Arial, sans-serif" font-size="12" fill="#334155">6/6 · 100.0%</text><text x="70" y="474" font-family="Segoe UI, Arial, sans-serif" font-size="13" fill="#1e293b">Этап 2 — Масштабируемость 1000+</text><rect x="760" y="460" width="430" height="14" rx="7" fill="#e2e8f0"/><rect x="760" y="460" width="430.0" height="14" rx="7" fill="#1f9d55"/><text x="1204" y="472" font-family="Segoe UI, Arial, sans-serif" font-size="12" fill="#334155">5/5 · 100.0%</text><text x="70" y="510" font-family="Segoe UI, Arial, sans-serif" font-size="13" fill="#1e293b">Этап 3 — Оптимизация затрат и качество распознавания</text><rect x="760" y="496" width="430" height="14" rx="7" fill="#e2e8f0"/><rect x="760" y="496" width="430.0" height="14" rx="7" fill="#1f9d55"/><text x="1204" y="508" font-family="Segoe UI, Arial, sans-serif" font-size="12" fill="#334155">8/8 · 100.0%</text><text x="70" y="546" font-family="Segoe UI, Arial, sans-serif" font-size="13" fill="#1e293b">Этап 4 — Надежность и наблюдаемость</text><rect x="760" y="532" width="430" height="14" rx="7" fill="#e2e8f0"/><rect x="760" y="532" width="430.0" height="14" rx="7" fill="#1f9d55"/><text x="1204" y="544" font-family="Segoe UI, Arial, sans-serif" font-size="12" fill="#334155">8/8 · 100.0%</text><text x="70" y="582" font-family="Segoe UI, Arial, sans-serif" font-size="13" fill="#1e293b">Этап 5 — UX бота (незавершённые пункты из feature/ui-messages)</text><rect x="760" y="568" width="430" height="14" rx="7" fill="#e2e8f0"/><rect x="760" y="568" width="215.0" height="14" rx="7" fill="#d97706"/><text x="1204" y="580" font-family="Segoe UI, Arial, sans-serif" font-size="12" fill="#334155">3/6 · 50.0%</text><text x="70" y="618" font-family="Segoe UI, Arial, sans-serif" font-size="13" fill="#1e293b">Этап 6 — Выявлено из dialogue_dump (Copilot-сессия)</text><rect x="760" y="604" width="430" height="14" rx="7" fill="#e2e8f0"/><rect x="760" y="604" width="234.5" height="14" rx="7" fill="#d97706"/><text x="1204" y="616" font-family="Segoe UI, Arial, sans-serif" font-size="12" fill="#334155">6/11 · 54.5%</text><text x="70" y="654" font-family="Segoe UI, Arial, sans-serif" font-size="13" fill="#1e293b">Этап 7 — Альтернативный LLM-провайдер (Cloudflare + Gemini)</text><rect x="760" y="640" width="430" height="14" rx="7" fill="#e2e8f0"/><rect x="760" y="640" width="0.0" height="14" rx="7" fill="#64748b"/><text x="1204" y="652" font-family="Segoe UI, Arial, sans-serif" font-size="12" fill="#334155">0/5 · 0.0%</text><text x="70" y="690" font-family="Segoe UI, Arial, sans-serif" font-size="13" fill="#1e293b">Этап 8 — Каналы продаж и омниканальный intake (B2B)</text><rect x="760" y="676" width="430" height="14" rx="7" fill="#e2e8f0"/><rect x="760" y="676" width="0.0" height="14" rx="7" fill="#64748b"/><text x="1204" y="688" font-family="Segoe UI, Arial, sans-serif" font-size="12" fill="#334155">0/5 · 0.0%</text><text x="70" y="726" font-family="Segoe UI, Arial, sans-serif" font-size="13" fill="#1e293b">Этап 9 — Интеграции учета и операционных систем как core-value</text><rect x="760" y="712" width="430" height="14" rx="7" fill="#e2e8f0"/><rect x="760" y="712" width="0.0" height="14" rx="7" fill="#64748b"/><text x="1204" y="724" font-family="Segoe UI, Arial, sans-serif" font-size="12" fill="#334155">0/8 · 0.0%</text><text x="70" y="762" font-family="Segoe UI, Arial, sans-serif" font-size="13" fill="#1e293b">Этап 10 — Коммерциализация и удержание</text><rect x="760" y="748" width="430" height="14" rx="7" fill="#e2e8f0"/><rect x="760" y="748" width="0.0" height="14" rx="7" fill="#64748b"/><text x="1204" y="760" font-family="Segoe UI, Arial, sans-serif" font-size="12" fill="#334155">0/5 · 0.0%</text><text x="70" y="798" font-family="Segoe UI, Arial, sans-serif" font-size="13" fill="#1e293b">Этап 11 — Процессное масштабирование (cross-vertical modeling)</text><rect x="760" y="784" width="430" height="14" rx="7" fill="#e2e8f0"/><rect x="760" y="784" width="0.0" height="14" rx="7" fill="#64748b"/><text x="1204" y="796" font-family="Segoe UI, Arial, sans-serif" font-size="12" fill="#334155">0/7 · 0.0%</text><text x="70" y="834" font-family="Segoe UI, Arial, sans-serif" font-size="13" fill="#1e293b">Этап 12 — Post-stage3 optimization backlog</text><rect x="760" y="820" width="430" height="14" rx="7" fill="#e2e8f0"/><rect x="760" y="820" width="430.0" height="14" rx="7" fill="#1f9d55"/><text x="1204" y="832" font-family="Segoe UI, Arial, sans-serif" font-size="12" fill="#334155">2/2 · 100.0%</text><text x="70" y="870" font-family="Segoe UI, Arial, sans-serif" font-size="13" fill="#1e293b">Аудит веток и экспериментов (2026-04-05)</text><rect x="760" y="856" width="430" height="14" rx="7" fill="#e2e8f0"/><rect x="760" y="856" width="430.0" height="14" rx="7" fill="#1f9d55"/><text x="1204" y="868" font-family="Segoe UI, Arial, sans-serif" font-size="12" fill="#334155">7/7 · 100.0%</text></svg>